<mxfile host="Electron" agent="Mozilla/5.0 (Windows NT 10.0; Win64; x64) AppleWebKit/537.36 (KHTML, like Gecko) draw.io/25.0.1 Chrome/128.0.6613.186 Electron/32.2.6 Safari/537.36" version="25.0.1">
  <diagram name="Page-1" id="4jpGTOkpyzWVvASpdwsR">
    <mxGraphModel dx="780" dy="496" grid="1" gridSize="10" guides="1" tooltips="1" connect="1" arrows="1" fold="1" page="1" pageScale="1" pageWidth="850" pageHeight="1100" math="0" shadow="0">
      <root>
        <mxCell id="0" />
        <mxCell id="1" parent="0" />
        <mxCell id="BzSArDX7FEV2FAhadVSd-1" value="" style="swimlane;startSize=0;" parent="1" vertex="1">
          <mxGeometry x="220" y="30" width="320" height="630" as="geometry" />
        </mxCell>
        <mxCell id="BzSArDX7FEV2FAhadVSd-5" value="Customer Registration" style="ellipse;whiteSpace=wrap;html=1;" parent="BzSArDX7FEV2FAhadVSd-1" vertex="1">
          <mxGeometry x="20" y="20" width="280" height="40" as="geometry" />
        </mxCell>
        <mxCell id="BzSArDX7FEV2FAhadVSd-10" value="" style="ellipse;whiteSpace=wrap;html=1;" parent="BzSArDX7FEV2FAhadVSd-1" vertex="1">
          <mxGeometry x="20" y="270" width="280" height="40" as="geometry" />
        </mxCell>
        <mxCell id="BzSArDX7FEV2FAhadVSd-9" value="add to cart, add to wishlist" style="ellipse;whiteSpace=wrap;html=1;" parent="BzSArDX7FEV2FAhadVSd-1" vertex="1">
          <mxGeometry x="20" y="220" width="280" height="40" as="geometry" />
        </mxCell>
        <mxCell id="BzSArDX7FEV2FAhadVSd-8" value="view products" style="ellipse;whiteSpace=wrap;html=1;" parent="BzSArDX7FEV2FAhadVSd-1" vertex="1">
          <mxGeometry x="20" y="170" width="280" height="40" as="geometry" />
        </mxCell>
        <mxCell id="BzSArDX7FEV2FAhadVSd-7" value="edit profile" style="ellipse;whiteSpace=wrap;html=1;" parent="BzSArDX7FEV2FAhadVSd-1" vertex="1">
          <mxGeometry x="20" y="120" width="280" height="40" as="geometry" />
        </mxCell>
        <mxCell id="BzSArDX7FEV2FAhadVSd-6" value="User Type" style="ellipse;whiteSpace=wrap;html=1;" parent="BzSArDX7FEV2FAhadVSd-1" vertex="1">
          <mxGeometry x="20" y="70" width="280" height="40" as="geometry" />
        </mxCell>
        <mxCell id="BzSArDX7FEV2FAhadVSd-2" value="&lt;b&gt;&lt;font style=&quot;font-size: 14px;&quot;&gt;Customer&lt;/font&gt;&lt;/b&gt;" style="shape=umlActor;verticalLabelPosition=bottom;verticalAlign=top;html=1;outlineConnect=0;" parent="1" vertex="1">
          <mxGeometry x="100" y="210" width="80" height="120" as="geometry" />
        </mxCell>
        <mxCell id="om_4Pio9Dx7DGidtvkV1-1" value="" style="endArrow=none;html=1;rounded=0;entryX=0;entryY=0.5;entryDx=0;entryDy=0;" parent="1" target="BzSArDX7FEV2FAhadVSd-5" edge="1">
          <mxGeometry width="50" height="50" relative="1" as="geometry">
            <mxPoint x="180" y="250" as="sourcePoint" />
            <mxPoint x="230" y="200" as="targetPoint" />
            <Array as="points" />
          </mxGeometry>
        </mxCell>
      </root>
    </mxGraphModel>
  </diagram>
</mxfile>
